<svg xmlns="http://www.w3.org/2000/svg" width="34.136" height="25.599" viewBox="0 0 158.32 118.73" shape-rendering="geometricPrecision" text-rendering="geometricPrecision" image-rendering="optimizeQuality" fill-rule="evenodd" clip-rule="evenodd"><defs><style>.fil1{fill:#70747f}.fil0{fill:#fff;fill-rule:nonzero}</style></defs><g id="Слой_x0020_1"><path class="fil0" d="M75.08 116.55L.87 7.73C.29 6.88 0 5.92 0 4.92c0-.77.19-1.57.58-2.29A4.942 4.942 0 0 1 4.95 0h148.41c1.84 0 3.52 1.01 4.37 2.63.87 1.62.75 3.57-.29 5.1L83.23 116.57a4.972 4.972 0 0 1-4.08 2.15 4.91 4.91 0 0 1-4.08-2.18z"/><path id="1" class="fil1" d="M75.08 116.55L.87 7.73C.29 6.88 0 5.92 0 4.92c0-.77.19-1.57.58-2.29A4.942 4.942 0 0 1 4.95 0h148.41c1.84 0 3.52 1.01 4.37 2.63.87 1.62.75 3.57-.29 5.1L83.23 116.57a4.972 4.972 0 0 1-4.08 2.15 4.91 4.91 0 0 1-4.08-2.18zM12.17 8.77l67 98.26 66.99-98.26h-134z"/></g></svg>