<svg xmlns="http://www.w3.org/2000/svg" width="44.572" height="35.02" viewBox="0 0 799.75 628.36" shape-rendering="geometricPrecision" text-rendering="geometricPrecision" image-rendering="optimizeQuality" fill-rule="evenodd" clip-rule="evenodd"><defs><style>.fil0{fill:#70747f;fill-rule:nonzero}</style></defs><g id="Слой_x0020_1"><g id="_657762992"><path class="mail" d="M728.33 628.36c17.97 0 33.54-5.94 46.77-17.66L548.57 384.12c-5.47 3.9-10.72 7.68-15.71 11.28-16.97 12.5-30.73 22.26-41.27 29.24-10.59 6.99-24.64 14.11-42.18 21.4-17.57 7.28-33.94 10.93-49.12 10.93h-.87c-15.18 0-31.54-3.64-49.11-10.93-17.57-7.29-31.64-14.41-42.18-21.4-10.55-6.99-24.29-16.74-41.27-29.24-4.72-3.47-9.98-7.29-15.67-11.33L24.57 610.69c13.23 11.72 28.82 17.66 46.83 17.66h656.91zM45.08 241.46C28.11 230.14 13.1 217.2 0 202.63v344.73l199.72-199.71c-39.96-27.91-91.46-63.27-154.64-106.18zm710.02 0C694.32 282.59 642.67 318 600.11 347.72l199.64 199.64V202.63c-12.8 14.27-27.68 27.2-44.65 38.83z"/><path class="mail" d="M728.33 0H71.42C48.5 0 30.84 7.72 18.52 23.21 6.16 38.65-.01 58.01-.01 81.21c0 18.75 8.19 39.06 24.56 60.93 16.36 21.86 33.76 39.05 52.2 51.54 10.1 7.12 40.61 28.34 91.5 63.61 27.47 19.01 51.34 35.62 71.9 49.94 17.48 12.2 32.59 22.74 45.04 31.51 1.43 1 3.64 2.6 6.63 4.73 3.21 2.3 7.3 5.24 12.33 8.89 9.68 6.99 17.71 12.63 24.09 16.93 6.42 4.34 14.13 9.15 23.21 14.53 9.06 5.34 17.65 9.37 25.68 12.03 8.03 2.69 15.45 4.03 22.3 4.03h.87c6.86 0 14.32-1.34 22.35-4.03 8.02-2.66 16.57-6.69 25.63-12.03 9.07-5.38 16.8-10.19 23.21-14.53 6.42-4.3 14.45-9.94 24.13-16.93 4.98-3.65 9.07-6.59 12.28-8.89a816.7 816.7 0 0 1 6.68-4.73c9.67-6.77 24.81-17.28 45.17-31.42 36.97-25.69 91.46-63.52 163.66-113.64 21.74-15.18 39.88-33.49 54.44-54.88 14.59-21.44 21.88-43.91 21.88-67.39 0-19.65-7.08-36.44-21.22-50.45C764.4 6.98 747.65 0 728.31 0z"/></g></g></svg>