<svg xmlns="http://www.w3.org/2000/svg" width="156.794" height="179.195" viewBox="0 0 1377.09 1573.83" shape-rendering="geometricPrecision" text-rendering="geometricPrecision" image-rendering="optimizeQuality" fill-rule="evenodd" clip-rule="evenodd"><defs><style>.fil0{fill:#559dff;fill-rule:nonzero}</style></defs><path class="pdf" d="M1278.74 1450.87c0 13.33-11.28 24.58-24.6 24.58H122.96c-13.33 0-24.58-11.26-24.58-24.58V122.95c0-13.33 11.25-24.58 24.58-24.58h737.73c7.43 0 15.76.93 24.58 2.61v390.84h390.84c1.68 8.83 2.63 17.16 2.63 24.58v934.47zM861.55 0H122.36C55 .33 0 55.51 0 122.95v1327.92c0 67.61 55.32 122.96 122.96 122.96h1131.18c67.63 0 122.96-55.34 122.96-122.96V516.4c0-67.61-39.11-162.07-86.93-209.89L1070.6 86.94C1022.98 39.33 929.13.32 861.56 0zm359.06 376.06c4.8 4.8 9.61 10.72 14.26 17.38H983.65v-251.2c6.66 4.65 12.58 9.44 17.39 14.25l219.57 219.57zm-45 597.82c-6.38 3.99-24.68 6.31-36.44 6.31-37.96 0-84.94-17.37-150.8-45.6 25.3-1.88 48.51-2.82 69.32-2.82 38.08 0 49.36-.16 86.6 9.34 37.24 9.48 37.72 28.79 31.32 32.78zm-660.96 5.9c14.53-26 29.63-53.42 45.08-82.49 37.64-71.19 61.41-126.89 79.13-172.66 35.21 64.06 79.05 118.53 130.61 162.16 6.44 5.45 13.25 10.91 20.39 16.38-104.82 20.74-195.43 45.96-275.21 76.62zM636.96 306.9c20.85 0 32.72 52.55 33.7 101.82.99 49.27-10.53 83.86-24.84 109.45-11.83-37.88-17.56-97.59-17.56-136.64 0 0-.87-74.63 8.7-74.63zm-410.03 944.25c11.83-32.35 58.65-96.28 127.88-153.02 4.36-3.53 15.07-13.57 24.88-22.9-72.38 115.46-120.87 161.48-152.76 175.92zM1195.76 906c-20.97-20.67-67.48-31.61-138.28-32.54-47.91-.52-105.59 3.69-166.24 12.19-27.17-15.68-55.16-32.73-77.15-53.26-59.11-55.2-108.45-131.83-139.21-216.08 2.01-7.88 3.72-14.79 5.31-21.86 0 0 33.29-189.13 24.48-253.07-1.22-8.78-1.97-11.32-4.32-18.13l-2.88-7.43c-9.07-20.89-26.82-43.03-54.66-41.81l-16.33-.53-.45-.01c-31.06 0-56.34 15.88-63 39.62-20.19 74.43.64 185.8 38.39 330.04l-9.66 23.49c-27.03 65.91-60.91 132.28-90.79 190.83l-3.89 7.61c-31.44 61.53-59.97 113.78-85.85 158.03l-26.7 14.12c-1.94 1.02-47.71 25.23-58.45 31.73-91.07 54.38-151.42 116.1-161.44 165.08-3.18 15.64-.81 35.65 15.4 44.91l25.84 13c11.2 5.61 23.01 8.45 35.12 8.45 64.87 0 140.17-80.8 243.9-261.84 119.77-38.99 256.15-71.42 375.65-89.29 91.07 51.29 203.1 86.9 273.8 86.9 12.56 0 23.39-1.19 32.18-3.53 13.55-3.59 24.98-11.32 31.95-21.81 13.72-20.64 16.49-49.08 12.77-78.19-1.11-8.63-8.02-19.32-15.49-26.61z" id="Слой_x0020_1"/></svg>