<svg xmlns="http://www.w3.org/2000/svg" width="43.229" height="43.23" viewBox="0 0 101.98 101.98" shape-rendering="geometricPrecision" text-rendering="geometricPrecision" image-rendering="optimizeQuality" fill-rule="evenodd" clip-rule="evenodd"><defs><style>.fil0{fill:#70747f;fill-rule:nonzero}</style></defs><g id="Слой_x0020_1"><path class="fil0" d="M77.53 67.46c-3.33-3.29-7.49-3.29-10.8 0-2.53 2.5-5.05 5.01-7.53 7.56-.68.7-1.25.85-2.08.38-1.63-.89-3.37-1.61-4.95-2.59-7.32-4.6-13.45-10.53-18.89-17.19-2.7-3.31-5.09-6.85-6.77-10.84-.34-.81-.28-1.34.38-1.99 2.53-2.44 4.99-4.95 7.47-7.45 3.46-3.48 3.46-7.55-.02-11.06-1.97-1.99-3.95-3.95-5.92-5.94-2.04-2.04-4.05-4.1-6.11-6.11-3.33-3.25-7.49-3.25-10.8.02-2.55 2.5-4.99 5.07-7.58 7.53-2.4 2.27-3.61 5.05-3.86 8.3-.4 5.28.89 10.27 2.72 15.13C6.52 53.27 12.21 62.2 19.11 70.4c9.32 11.08 20.44 19.84 33.45 26.17 5.86 2.84 11.93 5.03 18.53 5.39 4.54.26 8.49-.89 11.65-4.44 2.16-2.42 4.61-4.63 6.9-6.94 3.4-3.44 3.42-7.6.04-10.99-4.03-4.05-8.09-8.09-12.14-12.12zm-4.05-16.91l7.83-1.34c-1.23-7.19-4.63-13.71-9.78-18.89-5.45-5.45-12.35-8.89-19.95-9.95l-1.1 7.87c5.88.83 11.23 3.48 15.45 7.7 3.99 3.99 6.6 9.04 7.56 14.6zm12.25-34.04C76.69 7.47 65.25 1.76 52.62 0l-1.1 7.87c10.91 1.53 20.8 6.47 28.61 14.26 7.41 7.41 12.27 16.76 14.03 27.06l7.83-1.34c-2.06-11.93-7.68-22.75-16.26-31.34z" id="_657478768"/></g></svg>