<svg xmlns="http://www.w3.org/2000/svg" width="32.89" height="43.229" viewBox="0 0 100.13 131.61" shape-rendering="geometricPrecision" text-rendering="geometricPrecision" image-rendering="optimizeQuality" fill-rule="evenodd" clip-rule="evenodd"><defs><style>.fil0{fill:#70747f;fill-rule:nonzero}</style></defs><path class="fil0" d="M50.06 0C22.42 0 0 22.42 0 50.06c0 16.41 17.63 47.58 31.98 70.2 9.59 15.14 26.58 15.14 36.17 0 14.33-22.63 31.98-53.79 31.98-70.2C100.13 22.42 77.71 0 50.06 0zm0 73.6c-13.75 0-24.9-11.15-24.9-24.89 0-13.75 11.15-24.9 24.9-24.9 13.76 0 24.91 11.15 24.91 24.9 0 13.74-11.15 24.89-24.91 24.89z" id="Слой_x0020_1"/></svg>