<svg xmlns="http://www.w3.org/2000/svg" width="42.943" height="43.241" viewBox="0 0 303.65 305.76" shape-rendering="geometricPrecision" text-rendering="geometricPrecision" image-rendering="optimizeQuality" fill-rule="evenodd" clip-rule="evenodd"><defs><style>.fil0{fill:#70747f}</style></defs><path class="web" d="M158.2 305.61c-.36.02-.71.04-1.08.05h-.07c-.99.02-1.98.05-2.98.07h-.33c-.47.01-.93.01-1.4.02C68.29 305.46-.01 237-.01 152.87v-.04C.01 68.73 68.3.28 152.34-.01c.46 0 .92.01 1.38.02h.33c1 .01 1.98.05 2.98.07h.07c.36.01.72.03 1.08.05h.49c78.76 3.52 141.92 67.46 144.84 146.93.06 1.92.12 3.85.12 5.78 0 1.93-.06 3.85-.12 5.78-2.93 79.46-66.09 143.4-144.84 146.93h-.49zM220 161.64h-58.36v41.39c18.13.49 35.58 2.91 51.67 7.11 3.74-14.89 6.08-31.29 6.68-48.5zm20.94-99.57a127.356 127.356 0 0 0-30.12-21.7l-.03-.02-.03-.02-.03-.02-.03-.02-.03-.02-.03-.02-.03-.02-.03-.02-.03-.02-.03-.02-.03-.02-.03-.02-.03-.02-.03-.02-.03-.02-.03-.01-.03-.02-.03-.02-.03-.01-.03-.02-.03-.02-.03-.01-.03-.02-.03-.02-.03-.02-.03-.02-.03-.02-.03-.02-.02-.01-.01-.01-.03-.02-.03-.02-.03-.02-.03-.02-.03-.02-.03-.02-.03-.02-.03-.01-.03-.02-.03-.02-.03-.02-.03-.01-.03-.02-.03-.01-.03-.01-.03-.02-.03-.02-.01-.01-.02-.01-.03-.02-.03-.01-.03-.02-.03-.02-.03-.01-.03-.02-.06-.03-.03-.02-.03-.01-.03-.02-.03-.02-.03-.02-.03-.01-.03-.02-.03-.02-.03-.01c5.74 8.72 10.79 18.81 14.98 30.06l.28-.1.02-.01a148.63 148.63 0 0 0 16.84-7.24zM210.79 265.4l.03-.02c12.37-6.39 23.52-14.76 33.11-24.69-5.73-3.08-11.91-5.84-18.45-8.26l-.3-.11c-4.5 12.89-10.07 24.4-16.51 34.15l.03-.02.04-.02.03-.02.03-.02.03-.02.03-.02.07-.03.03-.02.03-.02.03-.02.03-.02.03-.02.03-.02.03-.02.03-.02.03-.02.03-.02.01-.01.02-.01.03-.02.03-.02.03-.02.03-.02.03-.02.03-.02.03-.02.03-.02.03-.02.03-.02.03-.02.03-.02.03-.02.03-.02.03-.02.03-.02.03-.02.02-.01.01-.01.07-.03.03-.02.03-.02.03-.02.03-.02.03-.02.03-.02.03-.02.03-.02.03-.02.03-.02.03-.02.03-.02.2-.1.03-.02.03-.02.03-.02.03-.02.03-.02.04-.02zM89.68 144.12h54.43V98c-16.26-.71-31.99-3-46.64-6.74-4.39 16.02-7.14 33.96-7.79 52.86zm6.73 66.14c14.98-3.93 31.09-6.35 47.7-7.08v-41.54H89.69c.6 17.25 2.96 33.69 6.72 48.62zm6.48-135.69c12.92 3.22 26.82 5.2 41.23 5.86V26.62c-2.53.18-5.04.43-7.54.75-13.47 8.17-25.27 25.03-33.68 47.19zm-39.7 167.52a126.921 126.921 0 0 0 37.08 25.88l.04.02.04.02.04.02.04.02.04.02.04.02.04.02.04.02.04.02.04.02.07.03h.01l.04.02.04.02.04.02.04.02.04.02.04.02.04.02.04.02.04.02.04.02.04.02.04.02.04.02.04.02.04.02.04.02.04.02.01.01.03.01.04.02.04.02.04.02.04.02.04.02.04.02.04.02.04.02.04.02.04.02.04.02.04.02.04.02.04.02.04.02.04.02.02.01.02.01.04.02.04.02.04.02.04.02.04.02.04.02.12.05.04.02.04.02.12.05.04.02.04.02.04.02c-7.22-10.3-13.42-22.74-18.32-36.84l-.36.13-.1.03c-7.49 2.78-14.47 6.01-20.87 9.64zm39.49-205.38l-.04.01-.03.02-.04.02-.23.1-.04.01-.04.02-.04.02-.04.02-.04.02-.03.02-.04.02-.03.01-.04.02-.04.02-.04.02-.04.02-.04.02-.04.02-.04.02-.04.02-.07.03-.04.02-.03.02-.04.02-.04.02-.04.02-.04.02-.02.01-.01.01-.04.02-.04.02-.04.02-.04.02-.07.03-.04.02-.04.02-.04.02-.04.02-.04.02-.04.02-.04.02-.04.02-.04.02-.04.02-.02.01-.02.01-.04.02-.04.02-.04.02-.04.02-.04.02-.04.02-.04.02-.04.02-.04.02-.03.02-.04.02C87.65 43.67 76.14 51.49 66.14 60.9c5.97 3.21 12.42 6.03 19.24 8.5l.13.05.33.12c4.63-12.42 10.3-23.43 16.78-32.73zM80.55 86.09L80.3 86c-9.44-3.37-18.26-7.38-26.29-12.01-15.6 19.52-25.54 43.71-27.36 70.13h45.49c.64-20.89 3.6-40.49 8.42-58.03zm-8.42 75.55H26.64c1.72 25 10.7 48.04 24.88 66.98 8.44-5.08 17.83-9.48 27.95-13.14-4.17-16.45-6.73-34.59-7.34-53.84zm64.76 116.78c2.39.29 4.79.54 7.22.71v-58.4c-14.92.7-29.34 2.84-42.69 6.29 8.54 24.3 21.06 42.83 35.47 51.4zm93.33-63l.11.04c8.98 3.25 17.4 7.09 25.1 11.51 13.49-18.62 22.03-41.04 23.7-65.32h-41.57c-.46 14.75-2.08 28.86-4.69 42.05l-.04.2-.04.19-.04.19-.02.11-.02.08-.04.19-.04.19-.04.19-.03.15-.01.05-.04.19-.04.19-.04.19-.12.57-.04.19-.08.36v.02l-.04.19-.04.19-.04.19-.01.05-.03.14-.04.19-.04.19-.08.38-.04.19-.04.19-.04.19-.03.12-.02.07-.04.19-.04.19-.04.19-.03.15-.01.04-.04.19-.04.19-.04.19-.04.18v.01l-.04.19-.05.19-.04.19-.04.19-.01.03-.04.16v.01l-.08.35v.01l-.05.19-.01.06-.03.13-.04.19-.05.19-.05.19-.02.09-.02.1-.05.19-.05.19-.05.19-.03.12-.01.06-.05.19-.05.19-.05.18-.04.16-.01.03-.05.18-.05.18-.05.19-.05.18zM174.37 28.17c-4.17-.72-8.42-1.23-12.73-1.53v53.98c15.78-.47 31.02-2.56 45.15-6.09-8.16-21.44-19.48-37.92-32.42-46.37zm54.76 57.91l.05.18.05.19.05.19.05.19.02.07.03.12.05.19.05.19.05.19.04.14.01.05.05.19.05.19.05.19.05.19.01.02.05.17.05.19.05.19.05.19.02.1.02.1.05.19.05.19.05.19.04.17.01.02.05.19.05.19.05.19.05.19.01.05.03.14.05.19.05.19.05.19.03.12.02.07.05.19.05.19.04.2.05.19.05.2.05.19.05.2.05.2.02.07.03.12.04.2.05.2.05.2.03.14.01.05.05.2.05.2.05.2.04.2.01.02.04.17.05.2.05.2.04.2.04.2.05.2.04.2.05.19.08.39v.01l.04.2.05.2.04.2.01.05.03.15.04.2.04.2c3.04 14.23 4.92 29.58 5.41 45.69h41.57c-1.76-25.74-11.25-49.37-26.18-68.61-7.34 4-15.27 7.53-23.71 10.52l-.11.04zm-67.49 193.05c4.21-.29 8.36-.78 12.45-1.48 13.86-8.89 25.87-27.04 34.16-50.61-14.56-3.75-30.35-5.99-46.61-6.48v58.57zM212.2 91.21c-15.86 4.06-32.94 6.44-50.56 6.94v45.97H220c-.65-18.91-3.4-36.87-7.8-52.91z" id="Слой_x0020_1"/></svg>