<svg xmlns="http://www.w3.org/2000/svg" width="78.531" height="78.531" viewBox="0 0 283.53 283.53" shape-rendering="geometricPrecision" text-rendering="geometricPrecision" image-rendering="optimizeQuality" fill-rule="evenodd" clip-rule="evenodd"><defs><style>.fil0{fill:#70747f}</style></defs><path class="linkedin" d="M141.76 0c78.29 0 141.76 63.47 141.76 141.76 0 78.29-63.47 141.76-141.76 141.76C63.47 283.52 0 220.05 0 141.76 0 63.47 63.47 0 141.76 0zM69.21 69.21v145.1h145.1V69.21H69.21zm45.13 120.54H92.81v-64.77h21.53v64.77zm-10.76-73.61h-.14c-7.22 0-11.9-4.98-11.9-11.19 0-6.35 4.82-11.19 12.19-11.19 7.37 0 11.9 4.83 12.04 11.19 0 6.22-4.67 11.19-12.18 11.19zm88.41 73.61h-21.53V155.1c0-8.7-3.11-14.64-10.9-14.64-5.95 0-9.49 4-11.05 7.87-.56 1.38-.72 3.31-.72 5.25v36.17h-21.54s.29-58.69 0-64.77h21.54v9.18c-.04.07-.1.14-.14.21h.14v-.21c2.86-4.4 7.97-10.7 19.41-10.7 14.17 0 24.79 9.25 24.79 29.15v37.14z" id="Слой_x0020_1"/></svg>