<svg xmlns="http://www.w3.org/2000/svg" width="78.531" height="78.531" viewBox="0 0 130.15 130.15" shape-rendering="geometricPrecision" text-rendering="geometricPrecision" image-rendering="optimizeQuality" fill-rule="evenodd" clip-rule="evenodd"><defs><style>.fil0{fill:#70747f}</style></defs><path class="medium" d="M65.07 0c35.94 0 65.07 29.13 65.07 65.07s-29.13 65.07-65.07 65.07S0 101.01 0 65.07 29.13 0 65.07 0zm-4.29 88.36L42.14 48.72c-.09-.19-.2-.36-.34-.51l-7.04-7.83h15.15l15.97 34.47c.03.07.07.14.11.2l-5.21 13.31zm-14.3 2.82H34.41l5.87-7.39 6.2 7.39zm49.43-5.5v-6.5h-4.2v7.31c0 .52.19 1.02.54 1.41l2.97 3.28H77l3.13-3.59c.33-.38.52-.87.52-1.38V49.7c0-.15-.02-.29-.05-.43l3.58-9.13h11.17l-3.03 3.03c-.39.39-.61.93-.61 1.48v34.53h4.2V45.52l6-6c.6-.6.78-1.5.46-2.29-.33-.78-1.09-1.3-1.94-1.3H82.76c-.88 0-1.64.55-1.95 1.32 0 .01 0 .01-.01.01L68.11 69.65 53.17 37.39a2.103 2.103 0 0 0-1.9-1.22h-21.2c-.83 0-1.58.49-1.92 1.24-.34.76-.2 1.64.36 2.26l9.64 10.74v29.32l-9.73 12.23a2.1 2.1 0 1 0 1.64 3.41h20.92c.82 0 1.56-.47 1.9-1.21.34-.74.23-1.61-.29-2.24L42.34 79.7V59l16.54 35.16c.35.74 1.09 1.21 1.9 1.21h.33c.86 0 1.64-.53 1.95-1.33l13.39-34.18v25.56l-5.64 6.47a2.099 2.099 0 1 0 1.58 3.48h27.57c.83 0 1.58-.49 1.92-1.25.34-.76.19-1.65-.37-2.26l-5.61-6.19z" id="Слой_x0020_1"/></svg>