<svg xmlns="http://www.w3.org/2000/svg" width="78.531" height="78.531" viewBox="0 0 845.38 845.38" shape-rendering="geometricPrecision" text-rendering="geometricPrecision" image-rendering="optimizeQuality" fill-rule="evenodd" clip-rule="evenodd"><defs><style>.fil0{fill:#70747f}</style></defs><path class="reddit" d="M422.69 0c233.44 0 422.69 189.24 422.69 422.69 0 233.44-189.24 422.69-422.69 422.69C189.25 845.38 0 656.14 0 422.69 0 189.25 189.24 0 422.69 0zm108.66 430.84c1.31 3.34 1.91 6.75 1.91 10.17 0 6.86-2.38 13.53-6.37 18.96-3.94 5.39-9.52 9.56-16.07 11.4h.02c-.06.03-.11.03-.14.06h-.1a28.531 28.531 0 0 1-9.35 1.56c-7.32 0-14.51-2.65-20.26-7.14-5.71-4.48-10.03-10.93-11.39-18.55v-.09c0-.03 0-.05-.03-.09h.03c-.44-1.97-.65-3.93-.65-5.88 0-6.61 2.23-12.97 5.96-18.22 3.71-5.19 8.93-9.35 15.05-11.49h.02c.06 0 .06-.05.06-.05 3.47-1.26 7.14-1.92 10.74-1.92 6.59 0 13.07 2 18.53 5.66 5.41 3.58 9.78 8.85 11.97 15.39.03.06.03.08.05.1 0 .06.02.09.05.11h-.05zm-20.11 81.14c-2.6-1.67-5.57-2.68-8.75-2.68-2.55 0-5.2.74-7.55 2.3-22.24 13.28-48.42 20.55-74.41 20.55-19.52 0-38.89-4.1-56.44-12.75l-.08-.05-.11-.02c-2.65-1.07-5.66-3.39-8.94-5.57-1.7-1.07-3.45-2.16-5.36-2.95-1.91-.82-4.04-1.39-6.31-1.39-1.88 0-3.85.44-5.82 1.31-.09.05-.2.08-.27.13-3.06 1.15-5.47 3.3-7 5.85-1.62 2.6-2.41 5.63-2.41 8.66 0 2.73.66 5.46 1.99 7.95 1.26 2.34 3.23 4.39 5.77 5.79 25.11 16.91 54.66 24.59 84.31 24.56 26.76 0 53.67-6.2 77.61-17.46l.13-.08.11-.09c3.17-1.86 7.38-3.52 11.31-5.99 1.96-1.25 3.88-2.67 5.52-4.56 1.64-1.86 2.95-4.15 3.69-6.88.33-1.2.46-2.38.46-3.52 0-2.25-.54-4.35-1.45-6.27-1.34-2.84-3.5-5.19-6.03-6.86zm-176.21-40.69c.05 0 .11 0 .16.02 3.2 1.18 6.5 1.75 9.75 1.75 8.17 0 16.1-3.33 22.08-8.77 5.98-5.46 10.09-13.19 10.09-21.99v-.74c.03-.38.03-.82.03-1.25 0-8.74-4.05-16.48-9.98-21.97-5.96-5.49-13.86-8.86-22.06-8.86-2.18 0-4.39.28-6.58.77-.03 0-.06.03-.09.03h-.02c-10.84 2.27-20.36 10.3-23.86 21.36 0 .03-.03.06-.03.06a29.225 29.225 0 0 0-1.48 9.24c0 6.77 2.25 13.39 6.1 18.83 3.84 5.33 9.26 9.54 15.76 11.48.06 0 .06.02.12.05zm339.79-79.06v.05c.09 1.09.11 2.19.11 3.28 0 12.24-3.93 24-10.46 33.99-6.12 9.33-14.54 17.14-24.24 22.44.6 4.89.98 9.78.98 14.67-.02 26.34-9.1 52.25-24.92 72.99v.03h-.03c-29.23 38.88-74.13 61.81-119.5 73.4l-.03.02c-24.19 5.88-49.11 8.85-74.06 8.85-37.13 0-74.28-6.69-108.92-20.57v-.03h-.02c-35.94-14.81-70.15-38.34-91.14-72.83-11.28-18.41-17.49-39.98-17.49-61.67 0-4.9.33-9.82.98-14.68a70.43 70.43 0 0 1-23.72-21.89c-6.48-9.67-10.61-21.01-11.12-33.01v-.17c0-16.8 7.3-32.71 18.64-44.43 11.34-11.73 26.81-19.37 43.42-19.37h.68c1.75-.14 3.5-.2 5.25-.2 8.33 0 16.69 1.34 24.65 4.4l.02.02h.06c6.78 2.87 13.53 6.31 19.51 11.07 1.94-1 4.07-2.15 6.45-3.06 36.37-21.56 78.65-29.87 119.86-32.25.38-20.41 2.87-41.78 12.85-60.5 8.28-15.53 22.68-27.63 39.81-31.84l.05-.03h.09c6.53-1.26 13.12-1.85 19.65-1.85 17.4 0 34.62 4.12 50.72 10.57 7.14-10.77 17.33-19.15 29.27-23.85l.11-.09.11-.02c7-2.18 14.41-3.47 21.84-3.47 7.84 0 15.74 1.43 23.12 4.72v-.02l.03.02c.05.03.1.06.13.06 10.64 4.1 19.59 11.64 25.96 21.05 6.37 9.4 10.11 20.72 10.11 32.3 0 2.14-.1 4.29-.35 6.42l-.02.06v.1c-1.26 15.01-8.86 28.18-19.63 37.55-10.82 9.43-24.84 15.11-39.21 15.11-2.3 0-4.62-.11-6.95-.44-14.26-1.09-27.57-7.98-37.35-18.25-9.79-10.25-16.13-23.97-16.13-38.75 0-.71.09-1.45.11-2.16-13.4-5.95-27.64-10.9-41.76-10.87-2.05 0-4.07.11-6.12.29h-.03c-10.6 1.05-20.41 7.71-25.2 17.3v.03c-7.24 14.11-8.68 30.58-8.87 46.92 40.56 2.65 81.36 12.38 117.15 32.96h.06l.52.31c.66.41 1.94 1.09 3.06 1.69 2.47-1.99 5.06-4.04 8.04-5.82 10.86-7.21 23.7-10.82 36.56-10.82 5.72 0 11.43.74 16.95 2.16h.03l.24.09c.09 0 .14.02.2.02 13.12 3.34 24.94 10.88 33.88 21.01 8.91 10.15 14.9 23.01 16.07 36.96v.02h-.03zM555.34 259.47c0 .55 0 1.12.06 1.69v.11c.27 7.03 3.61 13.61 8.66 18.45 5.08 4.84 11.84 7.84 18.66 7.87h.2c.49.02.98.02 1.47.02 6.88.03 13.74-2.95 18.91-7.78 5.16-4.83 8.55-11.45 8.82-18.56v-.08c.06-.55.09-1.07.09-1.61 0-7.3-3.41-14.29-8.78-19.47-5.32-5.15-12.51-8.33-19.61-8.33-2.27 0-4.54.33-6.75 1.01h-.09l-.05.02c-5.85 1.53-11.31 5.12-15.25 9.89-3.93 4.76-6.34 10.64-6.34 16.75zM255.91 368.2c-5.43-2.51-11.04-4.32-16.58-4.32-.92 0-1.85.08-2.78.16h-.14l-.11.03c-7.98.22-16.01 3.69-22.03 9.24-6.04 5.55-10.03 13.04-10.33 21.29v.08l-.03.06c-.05.66-.05 1.34-.05 1.96 0 5.09 1.56 10 4.21 14.48 1.94 3.34 4.51 6.38 7.43 9.02 9.29-20.36 23.83-37.63 40.41-52.01zm353.38 99.61c0-18.15-6.56-36.37-17.16-51.08-21.12-29.4-53.92-48.59-88.05-59.27l-.22-.11c-6.56-1.99-13.17-3.77-19.84-5.31-19.95-4.53-40.39-6.8-60.8-6.8-27.41 0-54.84 4.08-81.08 12.16-34.11 10.83-67.01 29.87-88.11 59.38v.03c-10.68 14.74-16.97 33.04-16.97 51.24 0 6.72.85 13.42 2.62 19.95l.02.03c3.82 14.62 11.34 27.71 21.08 39.07 9.7 11.43 21.62 21.15 34.16 29.11 2.79 1.72 5.57 3.36 8.42 4.95 36.43 20.33 78.35 29.24 119.97 29.24 7.05 0 14.13-.24 21.12-.77 41.92-3.44 84-15.81 118.05-41.1v-.02c10.82-8 20.88-17.7 28.8-28.72 7.98-11.04 13.8-23.37 16.4-36.76v-.06c1.07-5 1.58-10.08 1.58-15.16zm33.09-72.23c-.03-4.43-1.01-8.8-3.22-12.9l-.06-.06-.02-.04c-2.95-6.09-7.57-10.66-13.17-13.8-5.58-3.15-12.14-4.76-18.7-4.76-5.93 0-11.8 1.34-17.06 3.97 16.65 14.46 31.24 31.84 40.69 52.28 3.04-2.65 5.63-5.87 7.57-9.48 2.52-4.7 3.97-9.98 3.97-15.2z" id="Слой_x0020_1"/></svg>