<svg xmlns="http://www.w3.org/2000/svg" width="78.531" height="78.531" viewBox="0 0 184340.43 184340.43" shape-rendering="geometricPrecision" text-rendering="geometricPrecision" image-rendering="optimizeQuality" fill-rule="evenodd" clip-rule="evenodd"><defs><style>.fil0{fill:#70747f}</style></defs><path class="twitter" d="M92170.21 0c50904.33 0 92170.21 41265.89 92170.21 92170.21 0 50904.33-41265.89 92170.21-92170.21 92170.21C41265.88 184340.42 0 143074.53 0 92170.21 0 41265.88 41265.89 0 92170.21 0zm47127.56 73779.64c35.49 928 53.23 1878.18 53.23 2830.14 0 28768.04-21900.3 61945.41-61966.7 61945.41-12299.12 0-23746.54-3586.02-33385.86-9785.71 1710.5 204.94 3438.75 314.07 5190.95 314.07 10216 0 19596.26-3476.9 27054.87-9321.71-9527.54-188.08-17561.93-6476.49-20334.4-15131.03 1317.48 261.72 2675.77 392.14 4089.06 392.14 1975.77 0 3907.19-259.06 5733.02-764.76-9956.94-1989.97-17474.1-10789.12-17474.1-21343.14 0-93.15 0-184.54 20.41-282.13 2919.74 1640.42 6291.95 2607.45 9862.9 2716.58-5843.92-3885.89-9697.88-10565.55-9697.88-18123.53 0-3979.94 1081.49-7722.11 2942.81-10941.72C62121.97 69463.46 78184.55 78132.2 96269.04 79041.57c-372.62-1596.94-558.04-3252.44-558.04-4969.15 0-12016.99 9753.77-21770.77 21777.86-21770.77 6269.77 0 11922.95 2645.6 15888.69 6866.85 4968.27-970.59 9641.99-2771.58 13849.04-5283.22-1640.42 5095.13-5086.26 9360.75-9586.09 12056.03 4412-517.23 8618.17-1692.76 12504.95-3421.89-2902 4356.99-6608.68 8187.88-10847.68 11260.22z" id="Слой_x0020_1"/></svg>