<svg xmlns="http://www.w3.org/2000/svg" width="78.531" height="78.531" viewBox="0 0 853.2 853.2" shape-rendering="geometricPrecision" text-rendering="geometricPrecision" image-rendering="optimizeQuality" fill-rule="evenodd" clip-rule="evenodd"><defs><style>.fil0{fill:#70747f}</style></defs><path class="vk" d="M426.6 0c235.61 0 426.6 191 426.6 426.6 0 235.61-191 426.6-426.6 426.6C190.99 853.2 0 662.2 0 426.6 0 190.99 191 0 426.6 0zm257.68 563.75c-.67-1.44-1.3-2.63-1.88-3.6-9.58-17.25-27.91-38.44-54.94-63.56l-.57-.58-.3-.28-.29-.29h-.28c-12.27-11.7-20.04-19.57-23.3-23.58-5.95-7.67-7.29-15.44-4.03-23.3 2.3-5.95 10.92-18.5 25.89-37.68 7.86-10.16 14.09-18.31 18.68-24.44 33.18-44.11 47.57-72.3 43.15-84.57l-1.7-2.87c-1.16-1.72-4.12-3.31-8.91-4.74-4.8-1.44-10.94-1.69-18.41-.72l-82.85.57c-1.33-.46-3.26-.43-5.74.15-2.5.57-3.75.86-3.75.86l-1.43.73-1.14.86c-.97.57-2.02 1.57-3.17 3.01-1.14 1.44-2.1 3.12-2.86 5.03-9.03 23.2-19.27 44.77-30.79 64.71-7.1 11.9-13.62 22.2-19.56 30.93-5.95 8.71-10.94 15.15-14.95 19.27-4.04 4.12-7.67 7.43-10.94 9.91-3.28 2.5-5.76 3.56-7.48 3.17-1.73-.39-3.36-.78-4.9-1.16-2.69-1.72-4.85-4.07-6.46-7.05-1.64-2.96-2.74-6.71-3.31-11.22-.57-4.5-.92-8.38-1.02-11.63-.09-3.26-.03-7.88.16-13.81.19-5.95.29-9.98.29-12.08 0-7.29.14-15.21.42-23.73.29-8.54.53-15.29.72-20.28.19-4.98.29-10.25.29-15.82 0-5.56-.34-9.91-1.01-13.09-.66-3.15-1.68-6.22-3.02-9.2-1.35-2.97-3.31-5.27-5.9-6.89-2.59-1.64-5.79-2.93-9.62-3.9-10.17-2.29-23.11-3.53-38.83-3.74l-3.58-.03h-7.4c-29.43.18-48.68 2.5-57.76 6.94-4.04 2.11-7.67 4.99-10.93 8.62-3.45 4.22-3.93 6.52-1.45 6.91 11.51 1.72 19.65 5.85 24.46 12.36l1.72 3.47c1.34 2.48 2.69 6.9 4.02 13.22 1.35 6.32 2.21 13.32 2.58 20.99.96 14 .96 25.98 0 35.96-.94 9.96-1.86 17.74-2.72 23.29-.86 5.57-2.16 10.07-3.88 13.53-1.72 3.45-2.88 5.55-3.47 6.33-.57.76-1.06 1.24-1.43 1.43-2.5.97-5.08 1.45-7.77 1.45-2.67 0-5.93-1.35-9.78-4.04-3.83-2.68-7.81-6.37-11.93-11.08-4.11-4.69-8.77-11.26-13.96-19.7-5.17-8.43-10.53-18.39-16.1-29.91l-4.6-8.34c-2.88-5.37-6.8-13.17-11.79-23.45-4.98-10.26-9.4-20.17-13.22-29.77-1.54-4.01-3.84-7.08-6.91-9.2l-1.43-.86c-.96-.76-2.5-1.57-4.6-2.44-2.12-.86-4.31-1.49-6.62-1.86l-78.81.57c-8.04 0-13.52 1.82-16.4 5.46l-1.15 1.72c-.56.95-.85 2.45-.86 4.5v.2c.02 2.11.59 4.65 1.72 7.67 11.52 27.03 24.01 53.11 37.54 78.22 13.52 25.13 25.26 45.36 35.22 60.69 9.98 15.35 20.13 29.82 30.49 43.42 10.36 13.62 17.22 22.35 20.56 26.19 3.36 3.84 6 6.7 7.91 8.62l7.19 6.91c4.6 4.6 11.35 10.12 20.29 16.53 8.91 6.43 18.79 12.76 29.61 19 10.84 6.23 23.45 11.31 37.84 15.24 14.38 3.93 28.38 5.52 41.99 4.74h33.08c6.71-.57 11.79-2.68 15.24-6.32l1.14-1.43c.77-1.16 1.49-2.94 2.15-5.33.67-2.39 1.02-5.03 1.02-7.9-.19-8.25.43-15.67 1.86-22.29 1.43-6.61 3.07-11.58 4.9-14.95 1.82-3.36 3.87-6.19 6.18-8.48 2.3-2.31 3.93-3.69 4.89-4.17.95-.48 1.71-.81 2.3-1.02 4.61-1.53 10.01-.03 16.25 4.47 6.23 4.52 12.07 10.06 17.55 16.69 5.47 6.62 12.04 14.05 19.69 22.28 7.69 8.24 14.4 14.38 20.13 18.41l5.76 3.45c3.84 2.31 8.82 4.41 14.96 6.33 6.13 1.93 11.49 2.41 16.1 1.45l73.64-1.16c7.27 0 12.94-1.21 16.96-3.6 4.03-2.39 6.42-5.03 7.19-7.9.78-2.88.82-6.13.16-9.79-.69-3.63-1.36-6.19-2.02-7.63z" id="Слой_x0020_1"/></svg>